<svg width="18" height="18" viewBox="0 0 18 18" fill="none" xmlns="http://www.w3.org/2000/svg">
<path d="M7.29199 8.75H10.2087" stroke="#F64900" stroke-width="1.45833" stroke-linecap="round" stroke-linejoin="round"/>
<path d="M7.29199 5.83331H10.2087" stroke="#F64900" stroke-width="1.45833" stroke-linecap="round" stroke-linejoin="round"/>
<path d="M10.2087 15.3125V13.125C10.2087 12.7382 10.055 12.3673 9.78152 12.0938C9.50803 11.8203 9.1371 11.6667 8.75033 11.6667C8.36355 11.6667 7.99262 11.8203 7.71913 12.0938C7.44564 12.3673 7.29199 12.7382 7.29199 13.125V15.3125" stroke="#F64900" stroke-width="1.45833" stroke-linecap="round" stroke-linejoin="round"/>
<path d="M4.37467 7.29169H2.91634C2.52957 7.29169 2.15863 7.44533 1.88514 7.71882C1.61165 7.99231 1.45801 8.36325 1.45801 8.75002V13.8542C1.45801 14.241 1.61165 14.6119 1.88514 14.8854C2.15863 15.1589 2.52957 15.3125 2.91634 15.3125H14.583C14.9698 15.3125 15.3407 15.1589 15.6142 14.8854C15.8877 14.6119 16.0413 14.241 16.0413 13.8542V6.56252C16.0413 6.17575 15.8877 5.80481 15.6142 5.53132C15.3407 5.25783 14.9698 5.10419 14.583 5.10419H13.1247" stroke="#F64900" stroke-width="1.45833" stroke-linecap="round" stroke-linejoin="round"/>
<path d="M4.375 15.3125V3.64583C4.375 3.25906 4.52865 2.88813 4.80214 2.61464C5.07563 2.34115 5.44656 2.1875 5.83333 2.1875H11.6667C12.0534 2.1875 12.4244 2.34115 12.6979 2.61464C12.9714 2.88813 13.125 3.25906 13.125 3.64583V15.3125" stroke="#F64900" stroke-width="1.45833" stroke-linecap="round" stroke-linejoin="round"/>
</svg>