<svg width="18" height="18" viewBox="0 0 18 18" fill="none" xmlns="http://www.w3.org/2000/svg">
<g clip-path="url(#clip0_1_873)">
<path d="M14.5837 9.47917C14.5837 13.125 12.0316 14.9479 8.99824 16.0052C8.8394 16.059 8.66686 16.0565 8.5097 15.9979C5.46908 14.9479 2.91699 13.125 2.91699 9.47917V4.375C2.91699 4.18162 2.99382 3.99615 3.13056 3.8594C3.26731 3.72266 3.45277 3.64584 3.64616 3.64584C5.10449 3.64584 6.92741 2.77084 8.19616 1.6625C8.35064 1.53052 8.54715 1.45801 8.75033 1.45801C8.95351 1.45801 9.15002 1.53052 9.30449 1.6625C10.5805 2.77813 12.3962 3.64584 13.8545 3.64584C14.0479 3.64584 14.2333 3.72266 14.3701 3.8594C14.5068 3.99615 14.5837 4.18162 14.5837 4.375V9.47917Z" stroke="#E7000B" stroke-width="1.45833" stroke-linecap="round" stroke-linejoin="round"/>
</g>
<defs>
<clipPath id="clip0_1_873">
<rect width="17.5" height="17.5" fill="white"/>
</clipPath>
</defs>
</svg>
