<svg width="14" height="14" viewBox="0 0 14 14" fill="none" xmlns="http://www.w3.org/2000/svg">
<path d="M11.6668 7.58337C11.6668 10.5 9.62516 11.9584 7.1985 12.8042C7.07142 12.8473 6.93339 12.8452 6.80766 12.7984C4.37516 11.9584 2.3335 10.5 2.3335 7.58337V3.50004C2.3335 3.34533 2.39495 3.19696 2.50435 3.08756C2.61375 2.97816 2.76212 2.91671 2.91683 2.91671C4.0835 2.91671 5.54183 2.21671 6.55683 1.33004C6.68041 1.22445 6.83762 1.16644 7.00016 1.16644C7.16271 1.16644 7.31991 1.22445 7.4435 1.33004C8.46433 2.22254 9.91683 2.91671 11.0835 2.91671C11.2382 2.91671 11.3866 2.97816 11.496 3.08756C11.6054 3.19696 11.6668 3.34533 11.6668 3.50004V7.58337Z" stroke="#4A5565" stroke-width="1.16667" stroke-linecap="round" stroke-linejoin="round"/>
</svg>
