<svg width="146" height="35" viewBox="0 0 146 35" fill="none" xmlns="http://www.w3.org/2000/svg">
<path d="M0 8.75C0 3.91751 3.91751 0 8.75 0H26.25C31.0825 0 35 3.91751 35 8.75V26.25C35 31.0825 31.0825 35 26.25 35H8.75C3.91751 35 0 31.0825 0 26.25V8.75Z" fill="#009689"/>
<path d="M8.75 13.5C8.75 10.8766 10.8766 8.75 13.5 8.75H21.5C24.1234 8.75 26.25 10.8766 26.25 13.5V21.5C26.25 24.1234 24.1234 26.25 21.5 26.25H13.5C10.8766 26.25 8.75 24.1234 8.75 21.5V13.5Z" fill="white"/>
<path d="M43.2554 11.5227H46.0767L49.8552 20.745H50.0043L53.7827 11.5227H56.6041V24.25H54.3917V15.5062H54.2737L50.7563 24.2127H49.1032L45.5858 15.4876H45.4677V24.25H43.2554V11.5227Z" fill="#101828"/>
<path d="M62.8054 24.4364C61.8483 24.4364 61.0218 24.2376 60.3258 23.8398C59.6339 23.438 59.1015 22.8704 58.7287 22.1371C58.3558 21.3996 58.1694 20.5317 58.1694 19.5332C58.1694 18.5513 58.3558 17.6896 58.7287 16.948C59.1057 16.2022 59.6318 15.6222 60.3072 15.2079C60.9825 14.7895 61.7758 14.5802 62.6873 14.5802C63.2756 14.5802 63.8308 14.6755 64.3528 14.8661C64.8789 15.0525 65.343 15.3426 65.7448 15.7361C66.1508 16.1297 66.4699 16.631 66.7019 17.2401C66.9339 17.8449 67.0499 18.5658 67.0499 19.4027V20.0925H59.2258V18.5762H64.8934C64.8893 18.1453 64.7961 17.7621 64.6138 17.4265C64.4315 17.0868 64.1767 16.8195 63.8494 16.6248C63.5263 16.4301 63.1492 16.3327 62.7184 16.3327C62.2585 16.3327 61.8546 16.4446 61.5065 16.6683C61.1585 16.8879 60.8872 17.1779 60.6924 17.5383C60.5019 17.8946 60.4045 18.2862 60.4004 18.7129V20.0366C60.4004 20.5917 60.5019 21.0682 60.7049 21.4659C60.9079 21.8595 61.1917 22.1619 61.5563 22.3732C61.9208 22.5804 62.3476 22.6839 62.8364 22.6839C63.1637 22.6839 63.46 22.6384 63.7251 22.5472C63.9903 22.4519 64.2202 22.3131 64.4149 22.1309C64.6096 21.9486 64.7567 21.7228 64.8562 21.4535L66.9567 21.6896C66.8241 22.2448 66.5714 22.7295 66.1985 23.1438C65.8298 23.554 65.3575 23.873 64.7816 24.1008C64.2057 24.3246 63.547 24.4364 62.8054 24.4364Z" fill="#101828"/>
<path d="M72.0595 24.4178C71.3096 24.4178 70.6385 24.2251 70.046 23.8398C69.4536 23.4545 68.9854 22.8952 68.6416 22.1619C68.2977 21.4286 68.1258 20.5379 68.1258 19.4897C68.1258 18.4291 68.2998 17.5342 68.6478 16.805C68.9999 16.0717 69.4743 15.5186 70.0709 15.1458C70.6675 14.7688 71.3324 14.5802 72.0657 14.5802C72.625 14.5802 73.0849 14.6755 73.4454 14.8661C73.8058 15.0525 74.0917 15.2783 74.303 15.5435C74.5142 15.8045 74.6779 16.051 74.7939 16.283H74.8871V11.5227H77.143V24.25H74.9306V22.7461H74.7939C74.6779 22.9781 74.5101 23.2246 74.2905 23.4856C74.0709 23.7425 73.7809 23.9621 73.4205 24.1443C73.0601 24.3266 72.6064 24.4178 72.0595 24.4178ZM72.6872 22.5721C73.1636 22.5721 73.5696 22.4436 73.9052 22.1868C74.2408 21.9258 74.4956 21.5633 74.6696 21.0992C74.8436 20.6352 74.9306 20.0946 74.9306 19.4773C74.9306 18.86 74.8436 18.3234 74.6696 17.8677C74.4997 17.412 74.247 17.0578 73.9114 16.805C73.58 16.5523 73.1719 16.426 72.6872 16.426C72.1859 16.426 71.7674 16.5565 71.4319 16.8175C71.0963 17.0785 70.8436 17.4389 70.6737 17.8988C70.5038 18.3587 70.4189 18.8848 70.4189 19.4773C70.4189 20.0739 70.5038 20.6062 70.6737 21.0744C70.8477 21.5384 71.1025 21.9051 71.4381 22.1744C71.7778 22.4395 72.1942 22.5721 72.6872 22.5721Z" fill="#101828"/>
<path d="M81.8512 24.4426C81.2464 24.4426 80.7015 24.3349 80.2168 24.1195C79.7362 23.8999 79.3551 23.5768 79.0734 23.15C78.7958 22.7233 78.657 22.1971 78.657 21.5715C78.657 21.033 78.7564 20.5876 78.9553 20.2354C79.1541 19.8833 79.4255 19.6016 79.7694 19.3903C80.1132 19.179 80.5006 19.0195 80.9315 18.9117C81.3665 18.7999 81.816 18.7191 82.28 18.6694C82.8393 18.6114 83.293 18.5596 83.641 18.514C83.989 18.4643 84.2417 18.3897 84.3992 18.2903C84.5607 18.1867 84.6415 18.0272 84.6415 17.8118V17.7745C84.6415 17.3063 84.5027 16.9438 84.2252 16.687C83.9476 16.4301 83.5478 16.3017 83.0258 16.3017C82.4748 16.3017 82.0377 16.4218 81.7145 16.6621C81.3955 16.9024 81.1801 17.1862 81.0682 17.5135L78.9677 17.2152C79.1334 16.6352 79.4069 16.1504 79.788 15.761C80.1692 15.3674 80.6353 15.0733 81.1863 14.8785C81.7373 14.6797 82.3463 14.5802 83.0133 14.5802C83.4732 14.5802 83.931 14.6341 84.3867 14.7418C84.8425 14.8495 85.2588 15.0277 85.6359 15.2763C86.0129 15.5207 86.3153 15.8542 86.5432 16.2768C86.7752 16.6994 86.8912 17.2276 86.8912 17.8615V24.25H84.7285V22.9387H84.654C84.5172 23.2039 84.3246 23.4525 84.076 23.6845C83.8316 23.9123 83.5229 24.0967 83.1501 24.2376C82.7813 24.3743 82.3484 24.4426 81.8512 24.4426ZM82.4354 22.7896C82.887 22.7896 83.2785 22.7005 83.6099 22.5224C83.9414 22.3401 84.1962 22.0998 84.3743 21.8015C84.5566 21.5032 84.6478 21.178 84.6478 20.8258V19.701C84.5773 19.759 84.4572 19.8128 84.2873 19.8626C84.1216 19.9123 83.9352 19.9558 83.728 19.9931C83.5209 20.0304 83.3158 20.0635 83.1128 20.0925C82.9098 20.1215 82.7337 20.1464 82.5845 20.1671C82.249 20.2126 81.9486 20.2872 81.6834 20.3908C81.4183 20.4944 81.2091 20.6394 81.0558 20.8258C80.9025 21.0081 80.8258 21.2443 80.8258 21.5343C80.8258 21.9486 80.9771 22.2614 81.2795 22.4726C81.5819 22.6839 81.9672 22.7896 82.4354 22.7896Z" fill="#101828"/>
<path d="M92.9433 24.4364C91.9863 24.4364 91.1598 24.2376 90.4637 23.8398C89.7719 23.438 89.2395 22.8704 88.8666 22.1371C88.4937 21.3996 88.3073 20.5317 88.3073 19.5332C88.3073 18.5513 88.4937 17.6896 88.8666 16.948C89.2436 16.2022 89.7698 15.6222 90.4451 15.2079C91.1204 14.7895 91.9138 14.5802 92.8252 14.5802C93.4135 14.5802 93.9687 14.6755 94.4907 14.8661C95.0169 15.0525 95.4809 15.3426 95.8828 15.7361C96.2888 16.1297 96.6078 16.631 96.8398 17.2401C97.0718 17.8449 97.1878 18.5658 97.1878 19.4027V20.0925H89.3638V18.5762H95.0314C95.0272 18.1453 94.934 17.7621 94.7517 17.4265C94.5694 17.0868 94.3146 16.8195 93.9874 16.6248C93.6642 16.4301 93.2872 16.3327 92.8563 16.3327C92.3964 16.3327 91.9925 16.4446 91.6445 16.6683C91.2965 16.8879 91.0251 17.1779 90.8304 17.5383C90.6398 17.8946 90.5425 18.2862 90.5383 18.7129V20.0366C90.5383 20.5917 90.6398 21.0682 90.8428 21.4659C91.0458 21.8595 91.3296 22.1619 91.6942 22.3732C92.0588 22.5804 92.4855 22.6839 92.9744 22.6839C93.3017 22.6839 93.5979 22.6384 93.8631 22.5472C94.1282 22.4519 94.3581 22.3131 94.5529 22.1309C94.7476 21.9486 94.8947 21.7228 94.9941 21.4535L97.0946 21.6896C96.962 22.2448 96.7093 22.7295 96.3364 23.1438C95.9677 23.554 95.4954 23.873 94.9195 24.1008C94.3436 24.3246 93.6849 24.4364 92.9433 24.4364Z" fill="#101828"/>
<path d="M101.402 24.4426C100.797 24.4426 100.252 24.3349 99.7676 24.1195C99.287 23.8999 98.9059 23.5768 98.6241 23.15C98.3466 22.7233 98.2078 22.1971 98.2078 21.5715C98.2078 21.033 98.3072 20.5876 98.5061 20.2354C98.7049 19.8833 98.9763 19.6016 99.3202 19.3903C99.664 19.179 100.051 19.0195 100.482 18.9117C100.917 18.7999 101.367 18.7191 101.831 18.6694C102.39 18.6114 102.844 18.5596 103.192 18.514C103.54 18.4643 103.793 18.3897 103.95 18.2903C104.112 18.1867 104.192 18.0272 104.192 17.8118V17.7745C104.192 17.3063 104.054 16.9438 103.776 16.687C103.498 16.4301 103.099 16.3017 102.577 16.3017C102.026 16.3017 101.588 16.4218 101.265 16.6621C100.946 16.9024 100.731 17.1862 100.619 17.5135L98.5185 17.2152C98.6842 16.6352 98.9576 16.1504 99.3388 15.761C99.72 15.3674 100.186 15.0733 100.737 14.8785C101.288 14.6797 101.897 14.5802 102.564 14.5802C103.024 14.5802 103.482 14.6341 103.938 14.7418C104.393 14.8495 104.81 15.0277 105.187 15.2763C105.564 15.5207 105.866 15.8542 106.094 16.2768C106.326 16.6994 106.442 17.2276 106.442 17.8615V24.25H104.279V22.9387H104.205C104.068 23.2039 103.875 23.4525 103.627 23.6845C103.382 23.9123 103.074 24.0967 102.701 24.2376C102.332 24.3743 101.899 24.4426 101.402 24.4426ZM101.986 22.7896C102.438 22.7896 102.829 22.7005 103.161 22.5224C103.492 22.3401 103.747 22.0998 103.925 21.8015C104.107 21.5032 104.199 21.178 104.199 20.8258V19.701C104.128 19.759 104.008 19.8128 103.838 19.8626C103.672 19.9123 103.486 19.9558 103.279 19.9931C103.072 20.0304 102.867 20.0635 102.664 20.0925C102.461 20.1215 102.284 20.1464 102.135 20.1671C101.8 20.2126 101.499 20.2872 101.234 20.3908C100.969 20.4944 100.76 20.6394 100.607 20.8258C100.453 21.0081 100.377 21.2443 100.377 21.5343C100.377 21.9486 100.528 22.2614 100.83 22.4726C101.133 22.6839 101.518 22.7896 101.986 22.7896Z" fill="#101828"/>
<path d="M112.273 24.25V11.5227H120.55V13.4554H114.578V16.9107H120.122V18.8434H114.578V22.3173H120.6V24.25H112.273Z" fill="#101828"/>
<path d="M122.467 24.25V11.5227H124.772V16.9107H130.67V11.5227H132.982V24.25H130.67V18.8434H124.772V24.25H122.467Z" fill="#101828"/>
<path d="M135.053 24.25V11.5227H139.826C140.804 11.5227 141.624 11.6926 142.287 12.0323C142.954 12.372 143.458 12.8485 143.797 13.4616C144.141 14.0707 144.313 14.7812 144.313 15.5932C144.313 16.4094 144.139 17.1178 143.791 17.7186C143.447 18.3152 142.94 18.7771 142.268 19.1044C141.597 19.4276 140.773 19.5891 139.795 19.5891H136.396V17.6751H139.484C140.056 17.6751 140.524 17.5963 140.889 17.4389C141.253 17.2773 141.523 17.0433 141.697 16.7367C141.875 16.426 141.964 16.0448 141.964 15.5932C141.964 15.1416 141.875 14.7563 141.697 14.4373C141.519 14.1142 141.247 13.8697 140.883 13.704C140.518 13.5341 140.048 13.4492 139.472 13.4492H137.359V24.25H135.053ZM141.628 18.4829L144.779 24.25H142.206L139.112 18.4829H141.628Z" fill="#101828"/>
</svg>
