<svg width="18" height="18" viewBox="0 0 18 18" fill="none" xmlns="http://www.w3.org/2000/svg">
<path d="M9 5.99967C12.7279 5.99967 15.75 4.99231 15.75 3.74967C15.75 2.50702 12.7279 1.49967 9 1.49967C5.27208 1.49967 2.25 2.50702 2.25 3.74967C2.25 4.99231 5.27208 5.99967 9 5.99967Z" stroke="#4A5565" stroke-width="1.45833" stroke-linecap="round" stroke-linejoin="round"/>
<path d="M2.25 3.74967V14.2497C2.25 14.8464 2.96116 15.4187 4.22703 15.8407C5.4929 16.2626 7.20979 16.4997 9 16.4997C10.7902 16.4997 12.5071 16.2626 13.773 15.8407C15.0388 15.4187 15.75 14.8464 15.75 14.2497V3.74967" stroke="#4A5565" stroke-width="1.45833" stroke-linecap="round" stroke-linejoin="round"/>
<path d="M2.25 9C2.25 9.59674 2.96116 10.169 4.22703 10.591C5.4929 11.0129 7.20979 11.25 9 11.25C10.7902 11.25 12.5071 11.0129 13.773 10.591C15.0388 10.169 15.75 9.59674 15.75 9" stroke="#4A5565" stroke-width="1.45833" stroke-linecap="round" stroke-linejoin="round"/>
</svg>
