<svg width="18" height="18" viewBox="0 0 18 18" fill="none" xmlns="http://www.w3.org/2000/svg">
<path d="M11.25 1.49967H4.5C4.10218 1.49967 3.72064 1.6577 3.43934 1.939C3.15804 2.22031 3 2.60184 3 2.99967V14.9997C3 15.3975 3.15804 15.779 3.43934 16.0603C3.72064 16.3416 4.10218 16.4997 4.5 16.4997H13.5C13.8978 16.4997 14.2794 16.3416 14.5607 16.0603C14.842 15.779 15 15.3975 15 14.9997V5.24967L11.25 1.49967Z" stroke="#4A5565" stroke-width="1.45833" stroke-linecap="round" stroke-linejoin="round"/>
<path d="M10.5 1.49967V4.49967C10.5 4.89749 10.658 5.27902 10.9393 5.56033C11.2206 5.84163 11.6022 5.99967 12 5.99967H15" stroke="#4A5565" stroke-width="1.45833" stroke-linecap="round" stroke-linejoin="round"/>
<path d="M7.5 6.75H6" stroke="#4A5565" stroke-width="1.45833" stroke-linecap="round" stroke-linejoin="round"/>
<path d="M12 9.75033H6" stroke="#4A5565" stroke-width="1.45833" stroke-linecap="round" stroke-linejoin="round"/>
<path d="M12 12.7497H6" stroke="#4A5565" stroke-width="1.45833" stroke-linecap="round" stroke-linejoin="round"/>
</svg>
