<svg width="1437" height="193" viewBox="0 0 1437 193" fill="none" xmlns="http://www.w3.org/2000/svg">
<mask id="path-1-inside-1_77_203" fill="white">
<path d="M1270.19 171.309C1270.19 166.475 1274.11 162.556 1278.95 162.556H1428.25C1433.08 162.556 1437 166.475 1437 171.309V183.813C1437 188.647 1433.08 192.566 1428.25 192.566H1278.95C1274.11 192.566 1270.19 188.647 1270.19 183.813V171.309Z"/>
</mask>
<path d="M1270.19 171.309C1270.19 166.475 1274.11 162.556 1278.95 162.556H1428.25C1433.08 162.556 1437 166.475 1437 171.309V183.813C1437 188.647 1433.08 192.566 1428.25 192.566H1278.95C1274.11 192.566 1270.19 188.647 1270.19 183.813V171.309Z" fill="white"/>
<path d="M1278.95 162.556V163.556H1428.25V162.556V161.555H1278.95V162.556ZM1437 171.309H1436V183.813H1437H1438V171.309H1437ZM1428.25 192.566V191.566H1278.95V192.566V193.566H1428.25V192.566ZM1270.19 183.813H1271.19V171.309H1270.19H1269.19V183.813H1270.19ZM1278.95 192.566V191.566C1274.66 191.566 1271.19 188.095 1271.19 183.813H1270.19H1269.19C1269.19 189.2 1273.56 193.566 1278.95 193.566V192.566ZM1437 183.813H1436C1436 188.095 1432.53 191.566 1428.25 191.566V192.566V193.566C1433.63 193.566 1438 189.2 1438 183.813H1437ZM1428.25 162.556V163.556C1432.53 163.556 1436 167.027 1436 171.309H1437H1438C1438 165.922 1433.63 161.555 1428.25 161.555V162.556ZM1278.95 162.556V161.555C1273.56 161.555 1269.19 165.922 1269.19 171.309H1270.19H1271.19C1271.19 167.027 1274.66 163.556 1278.95 163.556V162.556Z" fill="#D1D5DC" mask="url(#path-1-inside-1_77_203)"/>
<g clip-path="url(#clip0_77_203)">
<path d="M1286.8 181.646C1286.8 181.74 1286.83 181.833 1286.88 181.914C1286.93 181.995 1287 182.06 1287.09 182.103L1288.11 182.613C1288.18 182.652 1288.27 182.67 1288.36 182.666C1288.44 182.663 1288.53 182.636 1288.6 182.591C1288.68 182.545 1288.74 182.481 1288.78 182.405C1288.82 182.329 1288.85 182.243 1288.85 182.156V178.582C1288.85 178.329 1288.94 178.085 1289.11 177.897L1292.8 173.818C1292.86 173.745 1292.91 173.654 1292.92 173.557C1292.94 173.459 1292.92 173.359 1292.88 173.269C1292.84 173.179 1292.78 173.102 1292.7 173.048C1292.61 172.995 1292.52 172.966 1292.42 172.965H1283.23C1283.13 172.966 1283.03 172.994 1282.95 173.048C1282.87 173.102 1282.8 173.179 1282.76 173.269C1282.72 173.359 1282.71 173.459 1282.72 173.556C1282.74 173.654 1282.78 173.745 1282.85 173.818L1286.54 177.897C1286.71 178.085 1286.8 178.329 1286.8 178.582V181.646Z" stroke="#6A7282" stroke-width="1.02083" stroke-linecap="round" stroke-linejoin="round"/>
</g>
<defs>
<clipPath id="clip0_77_203">
<rect width="12.25" height="12.25" fill="white" transform="translate(1281.7 171.434) scale(1.00034)"/>
</clipPath>
</defs>
</svg>
