<svg width="13" height="13" viewBox="0 0 13 13" fill="none" xmlns="http://www.w3.org/2000/svg">
<g clip-path="url(#clip0_77_479)">
<path d="M11.9166 9.16471V10.7897C11.9172 10.9406 11.8863 11.0899 11.8259 11.2281C11.7654 11.3663 11.6768 11.4904 11.5656 11.5924C11.4545 11.6944 11.3232 11.772 11.1803 11.8203C11.0374 11.8687 10.886 11.8866 10.7358 11.873C9.06897 11.6919 7.46789 11.1224 6.06119 10.2101C4.75243 9.37848 3.64283 8.26888 2.81119 6.96012C1.89576 5.54703 1.32607 3.93816 1.14827 2.26387C1.13473 2.11409 1.15254 1.96312 1.20054 1.82059C1.24855 1.67806 1.3257 1.54708 1.4271 1.436C1.5285 1.32492 1.65191 1.23617 1.78949 1.17541C1.92707 1.11464 2.07579 1.08318 2.22619 1.08304H3.85119C4.11406 1.08045 4.36891 1.17354 4.56822 1.34495C4.76754 1.51637 4.89773 1.75441 4.93452 2.01471C5.00311 2.53474 5.13031 3.04535 5.31369 3.53679C5.38656 3.73067 5.40234 3.94137 5.35914 4.14393C5.31594 4.3465 5.21557 4.53243 5.06994 4.67971L4.38202 5.36762C5.15311 6.72371 6.27593 7.84653 7.63202 8.61762L8.31994 7.92971C8.46721 7.78407 8.65315 7.68371 8.85571 7.64051C9.05827 7.59731 9.26898 7.61308 9.46285 7.68596C9.95429 7.86934 10.4649 7.99654 10.9849 8.06512C11.2481 8.10224 11.4884 8.23478 11.6601 8.43752C11.8319 8.64026 11.9232 8.89906 11.9166 9.16471Z" stroke="#4A5565" stroke-width="1.02083" stroke-linecap="round" stroke-linejoin="round"/>
</g>
<defs>
<clipPath id="clip0_77_479">
<rect width="12.25" height="12.25" fill="white" transform="scale(1.06122)"/>
</clipPath>
</defs>
</svg>
