<svg width="13" height="13" viewBox="0 0 13 13" fill="none" xmlns="http://www.w3.org/2000/svg">
<g clip-path="url(#clip0_77_598)">
<path d="M8.66662 7.04169L11.4957 8.92778C11.5365 8.95492 11.5839 8.97048 11.6328 8.97283C11.6818 8.97517 11.7304 8.96419 11.7736 8.94107C11.8168 8.91794 11.8529 8.88354 11.8781 8.84152C11.9033 8.7995 11.9166 8.75143 11.9166 8.70244V4.26294C11.9166 4.21529 11.9041 4.16847 11.8802 4.12723C11.8563 4.08598 11.822 4.05176 11.7807 4.02802C11.7394 4.00428 11.6925 3.99187 11.6449 3.99203C11.5972 3.99219 11.5504 4.00492 11.5093 4.02894L8.66662 5.68752" stroke="#4A5565" stroke-width="1.02083" stroke-linecap="round" stroke-linejoin="round"/>
<path d="M7.58338 3.25H2.16671C1.5684 3.25 1.08338 3.73502 1.08338 4.33333V8.66667C1.08338 9.26498 1.5684 9.75 2.16671 9.75H7.58338C8.18169 9.75 8.66671 9.26498 8.66671 8.66667V4.33333C8.66671 3.73502 8.18169 3.25 7.58338 3.25Z" stroke="#4A5565" stroke-width="1.02083" stroke-linecap="round" stroke-linejoin="round"/>
</g>
<defs>
<clipPath id="clip0_77_598">
<rect width="12.25" height="12.25" fill="white" transform="scale(1.06122)"/>
</clipPath>
</defs>
</svg>
