<svg width="14" height="14" viewBox="0 0 14 14" fill="none" xmlns="http://www.w3.org/2000/svg">
<g clip-path="url(#clip0_4_833)">
<path d="M12.8334 6.99984H11.3867C11.1318 6.99929 10.8837 7.08227 10.6804 7.23607C10.4771 7.38987 10.3297 7.60604 10.2609 7.8515L8.89008 12.7282C8.88125 12.7585 8.86282 12.7851 8.83758 12.804C8.81234 12.8229 8.78164 12.8332 8.75008 12.8332C8.71853 12.8332 8.68782 12.8229 8.66258 12.804C8.63734 12.7851 8.61892 12.7585 8.61008 12.7282L5.39008 1.2715C5.38125 1.24121 5.36282 1.2146 5.33758 1.19567C5.31234 1.17674 5.28164 1.1665 5.25008 1.1665C5.21853 1.1665 5.18782 1.17674 5.16258 1.19567C5.13734 1.2146 5.11892 1.24121 5.11008 1.2715L3.73925 6.14817C3.67069 6.39268 3.52422 6.60814 3.32209 6.76184C3.11995 6.91555 2.87318 6.99911 2.61925 6.99984H1.16675" stroke="#4A5565" stroke-width="1.16667" stroke-linecap="round" stroke-linejoin="round"/>
</g>
<defs>
<clipPath id="clip0_4_833">
<rect width="14" height="14" fill="white"/>
</clipPath>
</defs>
</svg>
