<svg width="14" height="14" viewBox="0 0 14 14" fill="none" xmlns="http://www.w3.org/2000/svg">
<path d="M7 5.8335H7.00583" stroke="#4A5565" stroke-width="1.16667" stroke-linecap="round" stroke-linejoin="round"/>
<path d="M7 8.1665H7.00583" stroke="#4A5565" stroke-width="1.16667" stroke-linecap="round" stroke-linejoin="round"/>
<path d="M7 3.5H7.00583" stroke="#4A5565" stroke-width="1.16667" stroke-linecap="round" stroke-linejoin="round"/>
<path d="M9.33325 5.8335H9.33909" stroke="#4A5565" stroke-width="1.16667" stroke-linecap="round" stroke-linejoin="round"/>
<path d="M9.33325 8.1665H9.33909" stroke="#4A5565" stroke-width="1.16667" stroke-linecap="round" stroke-linejoin="round"/>
<path d="M9.33325 3.5H9.33909" stroke="#4A5565" stroke-width="1.16667" stroke-linecap="round" stroke-linejoin="round"/>
<path d="M4.66675 5.8335H4.67258" stroke="#4A5565" stroke-width="1.16667" stroke-linecap="round" stroke-linejoin="round"/>
<path d="M4.66675 8.1665H4.67258" stroke="#4A5565" stroke-width="1.16667" stroke-linecap="round" stroke-linejoin="round"/>
<path d="M4.66675 3.5H4.67258" stroke="#4A5565" stroke-width="1.16667" stroke-linecap="round" stroke-linejoin="round"/>
<path d="M5.25 12.8333V11.0833C5.25 10.9286 5.31146 10.7803 5.42085 10.6709C5.53025 10.5615 5.67862 10.5 5.83333 10.5H8.16667C8.32138 10.5 8.46975 10.5615 8.57915 10.6709C8.68854 10.7803 8.75 10.9286 8.75 11.0833V12.8333" stroke="#4A5565" stroke-width="1.16667" stroke-linecap="round" stroke-linejoin="round"/>
<path d="M10.4999 1.1665H3.49992C2.85559 1.1665 2.33325 1.68884 2.33325 2.33317V11.6665C2.33325 12.3108 2.85559 12.8332 3.49992 12.8332H10.4999C11.1443 12.8332 11.6666 12.3108 11.6666 11.6665V2.33317C11.6666 1.68884 11.1443 1.1665 10.4999 1.1665Z" stroke="#4A5565" stroke-width="1.16667" stroke-linecap="round" stroke-linejoin="round"/>
</svg>
