<svg width="18" height="18" viewBox="0 0 18 18" fill="none" xmlns="http://www.w3.org/2000/svg">
<path d="M10.9376 1.4585H4.37508C3.98831 1.4585 3.61737 1.61214 3.34388 1.88563C3.07039 2.15912 2.91675 2.53006 2.91675 2.91683V14.5835C2.91675 14.9703 3.07039 15.3412 3.34388 15.6147C3.61737 15.8882 3.98831 16.0418 4.37508 16.0418H13.1251C13.5119 16.0418 13.8828 15.8882 14.1563 15.6147C14.4298 15.3412 14.5834 14.9703 14.5834 14.5835V5.10433L10.9376 1.4585Z" stroke="#4A5565" stroke-width="1.45833" stroke-linecap="round" stroke-linejoin="round"/>
<path d="M10.2083 1.4585V4.37516C10.2083 4.76194 10.3619 5.13287 10.6354 5.40636C10.9089 5.67985 11.2798 5.8335 11.6666 5.8335H14.5833" stroke="#4A5565" stroke-width="1.45833" stroke-linecap="round" stroke-linejoin="round"/>
<path d="M7.29159 6.5625H5.83325" stroke="#4A5565" stroke-width="1.45833" stroke-linecap="round" stroke-linejoin="round"/>
<path d="M11.6666 9.479H5.83325" stroke="#4A5565" stroke-width="1.45833" stroke-linecap="round" stroke-linejoin="round"/>
<path d="M11.6666 12.396H5.83325" stroke="#4A5565" stroke-width="1.45833" stroke-linecap="round" stroke-linejoin="round"/>
</svg>
