<svg width="18" height="18" viewBox="0 0 18 18" fill="none" xmlns="http://www.w3.org/2000/svg">
<path d="M8.75 5.8335C12.3744 5.8335 15.3125 4.85412 15.3125 3.646C15.3125 2.43787 12.3744 1.4585 8.75 1.4585C5.12563 1.4585 2.1875 2.43787 2.1875 3.646C2.1875 4.85412 5.12563 5.8335 8.75 5.8335Z" stroke="#4A5565" stroke-width="1.45833" stroke-linecap="round" stroke-linejoin="round"/>
<path d="M2.1875 3.646V13.8543C2.1875 14.4345 2.8789 14.9909 4.10961 15.4011C5.34032 15.8114 7.00952 16.0418 8.75 16.0418C10.4905 16.0418 12.1597 15.8114 13.3904 15.4011C14.6211 14.9909 15.3125 14.4345 15.3125 13.8543V3.646" stroke="#4A5565" stroke-width="1.45833" stroke-linecap="round" stroke-linejoin="round"/>
<path d="M2.1875 8.75C2.1875 9.33016 2.8789 9.88656 4.10961 10.2968C5.34032 10.707 7.00952 10.9375 8.75 10.9375C10.4905 10.9375 12.1597 10.707 13.3904 10.2968C14.6211 9.88656 15.3125 9.33016 15.3125 8.75" stroke="#4A5565" stroke-width="1.45833" stroke-linecap="round" stroke-linejoin="round"/>
</svg>
