<svg width="14" height="14" viewBox="0 0 14 14" fill="none" xmlns="http://www.w3.org/2000/svg">
<g clip-path="url(#clip0_4_829)">
<path d="M6.12508 11.9584L11.9584 6.12508C12.231 5.85796 12.4479 5.53945 12.5966 5.18797C12.7453 4.83649 12.8229 4.45902 12.8248 4.07738C12.8268 3.69574 12.753 3.3175 12.6079 2.96453C12.4627 2.61157 12.249 2.29089 11.9791 2.02102C11.7093 1.75116 11.3886 1.53747 11.0356 1.39231C10.6827 1.24715 10.3044 1.1734 9.92279 1.17533C9.54115 1.17726 9.16368 1.25482 8.8122 1.40354C8.46072 1.55226 8.14221 1.76917 7.87508 2.04175L2.04175 7.87508C1.76917 8.14221 1.55226 8.46072 1.40354 8.8122C1.25482 9.16368 1.17726 9.54115 1.17533 9.92279C1.1734 10.3044 1.24715 10.6827 1.39231 11.0356C1.53747 11.3886 1.75116 11.7093 2.02102 11.9791C2.29089 12.249 2.61157 12.4627 2.96453 12.6079C3.3175 12.753 3.69574 12.8268 4.07738 12.8248C4.45902 12.8229 4.83649 12.7453 5.18797 12.5966C5.53945 12.4479 5.85796 12.231 6.12508 11.9584Z" stroke="#4A5565" stroke-width="1.16667" stroke-linecap="round" stroke-linejoin="round"/>
<path d="M4.95825 4.9585L9.04159 9.04183" stroke="#4A5565" stroke-width="1.16667" stroke-linecap="round" stroke-linejoin="round"/>
</g>
<defs>
<clipPath id="clip0_4_829">
<rect width="14" height="14" fill="white"/>
</clipPath>
</defs>
</svg>
