<svg width="14" height="14" viewBox="0 0 14 14" fill="none" xmlns="http://www.w3.org/2000/svg">
<path d="M8.75008 1.1665H5.25008C4.92792 1.1665 4.66675 1.42767 4.66675 1.74984V2.9165C4.66675 3.23867 4.92792 3.49984 5.25008 3.49984H8.75008C9.07225 3.49984 9.33341 3.23867 9.33341 2.9165V1.74984C9.33341 1.42767 9.07225 1.1665 8.75008 1.1665Z" stroke="#4A5565" stroke-width="1.16667" stroke-linecap="round" stroke-linejoin="round"/>
<path d="M9.33325 2.3335H10.4999C10.8093 2.3335 11.1061 2.45641 11.3249 2.6752C11.5437 2.894 11.6666 3.19074 11.6666 3.50016V11.6668C11.6666 11.9762 11.5437 12.273 11.3249 12.4918C11.1061 12.7106 10.8093 12.8335 10.4999 12.8335H3.49992C3.1905 12.8335 2.89375 12.7106 2.67496 12.4918C2.45617 12.273 2.33325 11.9762 2.33325 11.6668V3.50016C2.33325 3.19074 2.45617 2.894 2.67496 2.6752C2.89375 2.45641 3.1905 2.3335 3.49992 2.3335H4.66659" stroke="#4A5565" stroke-width="1.16667" stroke-linecap="round" stroke-linejoin="round"/>
<path d="M7 6.4165H9.33333" stroke="#4A5565" stroke-width="1.16667" stroke-linecap="round" stroke-linejoin="round"/>
<path d="M7 9.3335H9.33333" stroke="#4A5565" stroke-width="1.16667" stroke-linecap="round" stroke-linejoin="round"/>
<path d="M4.66675 6.4165H4.67258" stroke="#4A5565" stroke-width="1.16667" stroke-linecap="round" stroke-linejoin="round"/>
<path d="M4.66675 9.3335H4.67258" stroke="#4A5565" stroke-width="1.16667" stroke-linecap="round" stroke-linejoin="round"/>
</svg>
