<svg width="21" height="21" viewBox="0 0 21 21" fill="none" xmlns="http://www.w3.org/2000/svg">
<path d="M10.2228 4.83853C10.2484 4.78688 10.2879 4.7434 10.3368 4.71301C10.3858 4.68261 10.4423 4.6665 10.4999 4.6665C10.5575 4.6665 10.614 4.68261 10.663 4.71301C10.7119 4.7434 10.7514 4.78688 10.777 4.83853L12.1245 7.56794C12.2133 7.74759 12.3443 7.90301 12.5064 8.02087C12.6684 8.13873 12.8567 8.21551 13.0549 8.24461L16.0684 8.68561C16.1255 8.69388 16.1792 8.71797 16.2233 8.75514C16.2674 8.79232 16.3002 8.84109 16.3181 8.89596C16.3359 8.95083 16.3381 9.0096 16.3243 9.06561C16.3104 9.12163 16.2812 9.17266 16.2399 9.21294L14.0606 11.3351C13.9169 11.4752 13.8093 11.6481 13.7472 11.8389C13.6851 12.0297 13.6704 12.2328 13.7042 12.4306L14.2187 15.4289C14.2287 15.486 14.2226 15.5448 14.2009 15.5985C14.1792 15.6522 14.1428 15.6988 14.0959 15.7329C14.049 15.7669 13.9935 15.7871 13.9357 15.7911C13.8778 15.7952 13.8201 15.7828 13.7689 15.7556L11.0751 14.3393C10.8976 14.2461 10.7001 14.1974 10.4996 14.1974C10.2991 14.1974 10.1017 14.2461 9.92416 14.3393L7.23091 15.7556C7.17977 15.7827 7.12206 15.7949 7.06434 15.7908C7.00662 15.7867 6.95121 15.7664 6.90442 15.7324C6.85762 15.6984 6.82131 15.6519 6.79963 15.5982C6.77794 15.5446 6.77174 15.4859 6.78174 15.4289L7.29566 12.4312C7.32961 12.2333 7.3149 12.0301 7.25281 11.8391C7.19071 11.6482 7.0831 11.4752 6.93924 11.3351L4.75991 9.21353C4.71826 9.17329 4.68874 9.12217 4.67472 9.06599C4.6607 9.0098 4.66275 8.9508 4.68062 8.89572C4.6985 8.84064 4.73148 8.79168 4.77582 8.75443C4.82016 8.71718 4.87407 8.69313 4.93141 8.68503L7.94433 8.24461C8.14281 8.21573 8.3313 8.13906 8.49358 8.02118C8.65586 7.90331 8.78707 7.74777 8.87591 7.56794L10.2228 4.83853Z" stroke="#4A5565" stroke-width="1.16667" stroke-linecap="round" stroke-linejoin="round"/>
</svg>
