<svg width="14" height="14" viewBox="0 0 14 14" fill="none" xmlns="http://www.w3.org/2000/svg">
<path d="M5.64135 2.41259C5.67349 2.07446 5.83054 1.76045 6.08183 1.53192C6.33311 1.30339 6.66057 1.17676 7.00022 1.17676C7.33988 1.17676 7.66734 1.30339 7.91862 1.53192C8.16991 1.76045 8.32696 2.07446 8.3591 2.41259C8.37842 2.63102 8.45008 2.84159 8.56801 3.02646C8.68595 3.21133 8.84668 3.36506 9.03662 3.47465C9.22656 3.58424 9.4401 3.64646 9.65918 3.65604C9.87825 3.66561 10.0964 3.62227 10.2952 3.52968C10.6038 3.38955 10.9536 3.36927 11.2763 3.47279C11.5991 3.57631 11.8718 3.79623 12.0414 4.08974C12.211 4.38324 12.2653 4.72934 12.1937 5.06068C12.1222 5.39201 11.9299 5.68487 11.6544 5.88226C11.4749 6.00817 11.3284 6.17545 11.2273 6.36994C11.1262 6.56443 11.0734 6.78042 11.0734 6.99963C11.0734 7.21885 11.1262 7.43483 11.2273 7.62933C11.3284 7.82382 11.4749 7.9911 11.6544 8.11701C11.9299 8.3144 12.1222 8.60726 12.1937 8.93859C12.2653 9.26992 12.211 9.61602 12.0414 9.90953C11.8718 10.203 11.5991 10.423 11.2763 10.5265C10.9536 10.63 10.6038 10.6097 10.2952 10.4696C10.0964 10.377 9.87825 10.3337 9.65918 10.3432C9.4401 10.3528 9.22656 10.415 9.03662 10.5246C8.84668 10.6342 8.68595 10.7879 8.56801 10.9728C8.45008 11.1577 8.37842 11.3682 8.3591 11.5867C8.32696 11.9248 8.16991 12.2388 7.91862 12.4673C7.66734 12.6959 7.33988 12.8225 7.00022 12.8225C6.66057 12.8225 6.33311 12.6959 6.08183 12.4673C5.83054 12.2388 5.67349 11.9248 5.64135 11.5867C5.62207 11.3682 5.55041 11.1575 5.43244 10.9726C5.31447 10.7876 5.15367 10.6339 4.96365 10.5243C4.77364 10.4147 4.56001 10.3525 4.34085 10.343C4.1217 10.3334 3.90348 10.3769 3.70468 10.4696C3.39604 10.6097 3.04629 10.63 2.72352 10.5265C2.40074 10.423 2.12803 10.203 1.95847 9.90953C1.7889 9.61602 1.7346 9.26992 1.80614 8.93859C1.87769 8.60726 2.06995 8.3144 2.34552 8.11701C2.52496 7.9911 2.67144 7.82382 2.77257 7.62933C2.87369 7.43483 2.92649 7.21885 2.92649 6.99963C2.92649 6.78042 2.87369 6.56443 2.77257 6.36994C2.67144 6.17545 2.52496 6.00817 2.34552 5.88226C2.07034 5.68477 1.87841 5.39202 1.80704 5.06091C1.73567 4.72981 1.78996 4.38399 1.95934 4.09067C2.12873 3.79736 2.40112 3.5775 2.72357 3.47382C3.04602 3.37014 3.39551 3.39005 3.7041 3.52968C3.90288 3.62227 4.12103 3.66561 4.34011 3.65604C4.55918 3.64646 4.77273 3.58424 4.96266 3.47465C5.1526 3.36506 5.31334 3.21133 5.43127 3.02646C5.54921 2.84159 5.62087 2.63102 5.64018 2.41259" stroke="#4A5565" stroke-width="1.16667" stroke-linecap="round" stroke-linejoin="round"/>
<path d="M7 8.75C7.9665 8.75 8.75 7.9665 8.75 7C8.75 6.0335 7.9665 5.25 7 5.25C6.0335 5.25 5.25 6.0335 5.25 7C5.25 7.9665 6.0335 8.75 7 8.75Z" stroke="#4A5565" stroke-width="1.16667" stroke-linecap="round" stroke-linejoin="round"/>
</svg>
